<?xml version="1.0" standalone="no"?>
<!DOCTYPE svg PUBLIC "-//W3C//DTD SVG 20010904//EN"
 "http://www.w3.org/TR/2001/REC-SVG-20010904/DTD/svg10.dtd">
<svg version="1.0" xmlns="http://www.w3.org/2000/svg"
 width="2690.000000pt" height="2690.000000pt" viewBox="0 0 2690.000000 2690.000000"
 preserveAspectRatio="xMidYMid meet">
<metadata>
Created by potrace 1.14, written by Peter Selinger 2001-2017
</metadata>
<g transform="translate(0.000000,2690.000000) scale(0.100000,-0.100000)"
fill="#000000" stroke="none">
<path d="M13319 26270 c-46 -66 -104 -149 -129 -184 -25 -35 -94 -133 -153
-217 -60 -85 -150 -213 -200 -284 -51 -72 -153 -217 -227 -323 -151 -215 -226
-322 -238 -337 -4 -5 -79 -112 -167 -238 -88 -125 -182 -258 -208 -295 -26
-37 -55 -78 -65 -92 -9 -14 -85 -122 -168 -240 -406 -577 -558 -793 -621 -883
-37 -54 -94 -133 -125 -177 -32 -44 -58 -82 -58 -86 0 -4 -7 -14 -15 -23 -9
-9 -84 -113 -167 -231 -83 -118 -167 -237 -186 -265 -20 -27 -222 -315 -450
-640 -229 -324 -431 -612 -451 -640 -19 -27 -51 -73 -71 -101 -48 -70 -94
-135 -494 -704 -192 -272 -450 -639 -574 -815 -124 -176 -246 -350 -272 -386
l-47 -66 149 -214 c82 -118 176 -252 208 -299 32 -47 90 -130 129 -185 38 -55
93 -134 122 -175 52 -76 96 -138 230 -331 41 -58 79 -106 84 -106 8 0 48 50
115 147 6 8 112 159 236 335 123 176 245 349 270 385 25 36 55 79 67 95 73
101 344 489 352 503 6 9 13 19 16 22 6 5 143 200 377 535 16 22 174 247 352
500 178 253 342 487 365 520 23 33 103 146 176 250 74 105 142 201 151 215 38
55 138 196 145 205 5 6 108 152 229 325 122 173 315 448 429 610 115 162 227
322 250 355 23 33 56 80 74 105 17 25 39 56 49 70 61 88 363 517 370 525 5 6
17 24 28 40 10 17 23 35 29 42 5 6 35 48 65 93 30 45 67 97 81 115 l26 34 49
-70 c27 -39 58 -82 69 -97 16 -22 93 -130 325 -462 15 -21 177 -251 194 -275
8 -11 61 -85 117 -165 56 -80 116 -165 134 -190 133 -189 227 -323 270 -384
127 -183 204 -292 250 -356 28 -38 92 -129 143 -202 163 -233 493 -702 508
-723 8 -11 52 -74 99 -140 46 -66 128 -183 183 -260 169 -240 483 -688 910
-1295 226 -322 415 -589 419 -595 9 -10 170 -239 283 -401 36 -52 180 -256
320 -456 140 -199 276 -392 302 -429 42 -60 46 -70 33 -83 -8 -8 -15 -17 -15
-20 0 -2 -30 -47 -67 -100 -38 -52 -156 -221 -263 -375 -107 -155 -242 -348
-300 -431 -58 -82 -157 -224 -220 -315 -63 -91 -147 -211 -186 -267 l-72 -102
132 -195 c158 -233 640 -951 718 -1068 l55 -83 19 23 c10 13 24 31 29 39 6 9
24 36 41 59 35 50 290 417 347 499 21 30 65 93 98 140 33 47 87 123 119 170
33 47 74 105 91 130 17 25 61 88 97 140 36 52 81 118 101 145 19 28 68 97 108
155 117 168 104 153 122 133 15 -16 239 -334 455 -643 44 -63 82 -117 85 -120
4 -3 27 -36 53 -75 55 -80 270 -387 298 -425 16 -21 183 -259 320 -455 19 -27
37 -52 40 -55 3 -3 20 -27 39 -55 51 -75 384 -549 394 -560 8 -10 151 -214
273 -390 35 -49 66 -94 71 -100 5 -5 87 -122 183 -260 96 -137 180 -256 187
-263 7 -7 13 -17 13 -21 0 -4 8 -16 18 -27 9 -11 40 -53 67 -94 28 -41 54 -79
58 -85 21 -28 164 -229 347 -490 112 -159 256 -364 320 -455 64 -91 159 -226
210 -300 52 -74 97 -137 100 -140 3 -3 17 -23 32 -45 15 -22 46 -68 70 -101
105 -150 160 -227 238 -339 46 -66 86 -122 89 -125 3 -3 35 -48 71 -100 35
-52 68 -99 72 -105 13 -16 167 -233 191 -270 12 -18 50 -73 85 -122 35 -48
110 -155 168 -238 58 -82 112 -159 120 -170 8 -11 100 -141 204 -290 104 -148
196 -279 204 -290 8 -11 141 -200 296 -420 155 -220 313 -445 351 -500 39 -55
156 -221 261 -370 104 -148 234 -333 288 -410 55 -77 173 -246 264 -375 91
-129 171 -243 178 -252 7 -10 45 -63 83 -118 39 -56 91 -131 118 -168 57 -80
41 -58 219 -312 79 -113 261 -371 404 -575 144 -203 267 -380 275 -392 15 -24
31 -31 24 -10 -3 6 -20 107 -40 222 -19 116 -37 222 -40 238 -8 47 -24 141
-29 172 -5 28 -25 148 -76 440 -11 66 -23 135 -26 154 -3 18 -7 43 -10 55 -7
37 -56 320 -60 351 -3 17 -9 53 -14 80 -6 28 -12 68 -15 90 -3 22 -10 60 -15
85 -5 25 -11 59 -14 75 -4 32 -53 323 -61 362 -8 45 -24 138 -30 173 -3 19 -8
49 -11 65 -3 17 -7 37 -9 45 -2 8 -6 33 -10 55 -3 22 -8 51 -10 65 -2 14 -13
79 -24 145 -11 66 -23 138 -26 160 -4 22 -8 47 -10 55 -2 8 -7 31 -10 50 -3
19 -8 47 -11 62 -3 15 -7 41 -9 58 -3 18 -6 39 -9 49 -3 9 -8 36 -11 61 -4 25
-20 122 -36 215 -16 94 -32 186 -35 205 -2 19 -7 46 -10 60 -2 14 -7 37 -9 53
-3 15 -7 39 -10 55 -3 15 -9 54 -15 87 -5 33 -12 71 -15 85 -3 14 -7 39 -9 55
-4 25 -15 92 -41 235 -2 14 -16 95 -30 180 -14 85 -30 175 -35 200 -5 25 -12
61 -15 80 -2 19 -7 46 -9 60 -2 14 -10 59 -16 100 -6 41 -15 93 -20 115 -5 22
-14 74 -21 115 -6 41 -13 84 -15 95 -2 11 -20 112 -39 225 -19 113 -37 216
-40 230 -2 13 -7 40 -10 60 -3 20 -8 47 -10 60 -3 14 -7 39 -10 55 -3 17 -7
41 -10 55 -3 14 -7 39 -9 55 -8 48 -74 437 -80 470 -10 53 -97 559 -102 595
-3 19 -7 42 -9 50 -5 16 -7 30 -30 170 -8 52 -17 106 -20 120 -2 13 -7 42 -10
65 -3 22 -8 47 -11 56 -3 10 -6 30 -8 45 -3 16 -12 72 -21 124 -9 52 -18 104
-20 115 -4 26 -74 434 -79 460 -2 11 -7 40 -11 65 -4 25 -9 54 -11 65 -2 10
-11 60 -19 110 -9 49 -18 104 -21 120 -3 17 -7 41 -9 55 -2 14 -15 93 -29 175
-14 83 -28 164 -31 180 -13 78 -15 92 -20 114 -7 39 -77 443 -81 476 -3 17 -9
50 -14 75 -5 25 -23 128 -40 230 -17 102 -33 196 -35 210 -3 14 -12 66 -20
115 -8 50 -17 101 -20 115 -10 52 -16 86 -20 110 -4 33 -10 66 -52 305 -19
110 -38 225 -43 255 -4 30 -11 66 -14 80 -3 14 -7 39 -10 55 -4 31 -22 140
-31 185 -2 14 -18 106 -35 205 -17 99 -33 194 -36 210 -3 17 -7 41 -9 55 -2
14 -16 90 -30 170 -14 80 -28 161 -31 180 -2 19 -7 46 -10 60 -10 57 -13 69
-18 101 -3 19 -19 113 -35 209 -50 286 -49 282 -57 340 -3 25 -9 59 -14 75 -5
17 -11 53 -15 80 -3 28 -8 57 -10 65 -5 19 -75 423 -81 470 -2 19 -9 55 -14
80 -6 25 -12 59 -14 75 -2 17 -9 62 -16 100 -7 39 -14 84 -16 100 -2 17 -8 53
-14 80 -11 56 -16 84 -30 170 -5 33 -12 71 -15 85 -2 13 -7 40 -10 60 -3 20
-8 47 -10 60 -3 14 -21 117 -40 230 -41 240 -43 249 -55 315 -5 28 -12 70 -16
95 -8 52 -8 57 -28 170 -23 135 -26 152 -36 212 -6 32 -13 70 -16 85 -3 16 -9
55 -14 88 -6 33 -12 74 -15 90 -3 17 -8 41 -10 55 -8 40 -46 262 -51 295 -2
17 -6 41 -9 55 -3 14 -7 41 -10 60 -3 19 -10 58 -15 85 -11 56 -116 666 -130
760 -6 33 -12 71 -15 85 -14 76 -67 381 -71 415 -3 22 -11 72 -19 110 -8 39
-28 156 -45 260 -17 105 -38 222 -45 261 -8 39 -17 95 -21 125 -3 30 -8 57
-10 60 -2 3 -8 34 -14 70 -5 35 -12 75 -14 89 -3 14 -18 106 -35 205 -17 99
-33 189 -35 200 -2 11 -7 40 -11 65 -8 51 -12 74 -20 110 -2 14 -7 41 -10 60
-3 19 -7 46 -10 60 -3 14 -7 40 -10 58 -3 17 -7 47 -10 65 -3 17 -10 55 -15
82 -8 46 -13 73 -26 160 -3 17 -9 53 -14 80 -12 60 -16 84 -43 248 l-22 129
-165 -236 c-91 -130 -210 -301 -265 -379 -55 -79 -143 -205 -195 -281 -52 -76
-106 -153 -120 -171 -14 -19 -44 -62 -68 -97 -24 -35 -112 -161 -195 -280 -84
-120 -204 -292 -267 -384 -63 -91 -146 -210 -185 -265 -86 -122 -97 -137 -523
-749 -189 -272 -377 -540 -416 -595 -39 -55 -75 -108 -81 -117 -11 -18 -785
-1129 -823 -1181 -23 -30 -212 -301 -304 -435 -24 -34 -77 -111 -119 -170 -88
-125 -175 -251 -205 -295 l-21 -31 66 -96 c36 -52 69 -96 73 -98 4 -2 8 -8 8
-13 0 -6 5 -15 11 -22 6 -7 132 -185 279 -397 148 -212 276 -394 284 -405 8
-11 55 -78 105 -150 50 -71 95 -131 99 -132 4 -1 52 63 107 143 55 80 126 182
158 227 32 45 137 195 232 332 96 138 204 293 240 345 122 174 255 365 265
380 6 8 70 101 143 205 229 328 446 639 459 659 7 10 20 28 29 40 9 11 39 55
67 96 52 75 74 107 160 230 25 36 90 128 143 205 54 77 110 158 125 180 l28
39 12 -59 c7 -33 14 -73 17 -90 18 -106 27 -163 31 -181 2 -12 7 -39 11 -60 3
-22 8 -52 11 -69 3 -16 7 -41 9 -55 2 -14 13 -77 24 -140 11 -63 34 -195 51
-293 16 -99 32 -189 35 -200 2 -12 7 -38 10 -57 4 -33 7 -48 21 -130 3 -19 8
-44 9 -55 2 -11 13 -72 24 -135 11 -63 23 -131 26 -150 3 -19 8 -47 11 -62 3
-15 7 -39 9 -55 2 -15 11 -68 20 -118 9 -49 18 -103 21 -120 2 -16 14 -82 25
-145 11 -63 22 -128 25 -145 2 -16 6 -41 9 -55 3 -14 8 -41 11 -60 2 -19 9
-57 14 -85 5 -27 12 -66 15 -85 6 -38 15 -93 21 -125 7 -37 46 -270 50 -300 3
-16 9 -50 14 -75 5 -25 25 -139 45 -255 19 -115 37 -220 39 -231 2 -12 7 -38
10 -58 3 -20 9 -52 12 -72 3 -20 8 -46 10 -58 2 -11 6 -34 9 -51 3 -16 7 -43
10 -60 3 -16 23 -133 44 -260 22 -126 42 -246 46 -265 3 -19 10 -57 15 -85 11
-58 20 -109 25 -145 2 -14 15 -92 30 -175 14 -82 28 -161 30 -175 2 -14 7 -41
10 -60 3 -19 8 -42 10 -50 2 -8 6 -33 9 -55 4 -22 8 -51 11 -65 8 -44 15 -84
21 -130 3 -25 8 -48 10 -51 1 -3 6 -28 9 -55 4 -27 8 -56 10 -64 2 -8 6 -28 9
-45 3 -16 8 -46 11 -65 11 -63 66 -382 85 -500 11 -63 22 -125 24 -136 2 -12
7 -39 10 -60 4 -22 11 -61 16 -89 5 -27 12 -66 15 -85 6 -37 21 -125 30 -175
3 -16 9 -57 15 -90 5 -33 12 -70 14 -81 2 -12 7 -39 11 -60 3 -22 8 -52 11
-69 3 -16 7 -41 9 -55 2 -14 27 -158 55 -320 28 -162 53 -304 55 -315 7 -49
35 -212 39 -231 2 -12 16 -90 30 -175 14 -85 28 -165 31 -179 3 -13 7 -42 11
-64 3 -22 7 -43 9 -46 1 -3 6 -27 9 -55 4 -27 9 -57 11 -65 2 -8 6 -33 10 -55
6 -43 42 -257 49 -291 2 -12 7 -39 10 -60 4 -22 17 -102 31 -179 13 -77 26
-153 29 -170 10 -64 46 -271 50 -291 2 -12 7 -38 10 -58 3 -20 9 -53 12 -73 3
-21 12 -68 19 -105 7 -38 11 -68 10 -68 -2 0 -26 33 -55 73 -141 199 -315 446
-353 501 -22 33 -45 66 -49 71 -11 13 -152 213 -217 306 -112 162 -240 345
-248 354 -7 8 -242 340 -303 428 -8 12 -80 114 -159 227 -79 113 -160 228
-179 255 -105 150 -127 180 -134 183 -5 2 -8 7 -8 12 0 6 -517 748 -548 785
-4 6 -30 42 -57 80 -26 39 -132 188 -234 333 -102 145 -196 278 -207 295 -12
18 -182 259 -378 537 -195 278 -360 512 -366 520 -6 8 -59 85 -119 170 -60 85
-160 227 -222 315 -62 88 -130 185 -152 215 -21 30 -73 105 -116 165 -42 61
-136 193 -207 295 -72 102 -152 217 -179 255 -27 39 -51 72 -54 75 -3 3 -20
25 -36 50 -52 77 -628 897 -671 955 -30 40 -431 612 -498 710 -12 17 -23 32
-26 35 -3 3 -14 19 -26 35 -11 17 -81 116 -154 220 -74 105 -267 379 -429 610
-253 360 -336 478 -415 590 -8 11 -73 103 -145 205 -71 102 -139 199 -151 215
-12 17 -143 203 -292 415 -447 636 -488 694 -501 711 -7 8 -16 23 -22 31 -26
41 -131 191 -140 202 -6 6 -121 169 -256 361 -135 193 -342 487 -460 655 -118
168 -275 391 -348 495 -74 105 -141 200 -150 211 -9 12 -22 30 -29 40 -7 11
-122 174 -255 364 -289 411 -295 419 -411 585 -50 72 -94 135 -99 140 -4 6
-52 73 -106 150 -251 359 -584 831 -595 843 -10 10 -29 -12 -97 -108z"/>
<path d="M3456 24813 c-2 -10 -8 -38 -11 -63 -4 -25 -9 -54 -11 -65 -2 -10 -6
-35 -9 -55 -3 -20 -7 -47 -10 -60 -8 -40 -24 -132 -29 -171 -3 -20 -7 -42 -10
-50 -3 -8 -7 -32 -10 -54 -3 -22 -14 -94 -26 -160 -11 -66 -23 -136 -26 -155
-3 -19 -11 -69 -19 -110 -8 -41 -17 -95 -21 -120 -3 -25 -8 -54 -11 -65 -2
-11 -6 -31 -8 -45 -2 -14 -15 -92 -30 -175 -14 -82 -28 -161 -30 -175 -2 -14
-18 -106 -35 -205 -18 -99 -34 -193 -36 -210 -3 -16 -11 -66 -19 -110 -8 -44
-17 -96 -20 -115 -7 -41 -16 -97 -21 -125 -2 -11 -11 -60 -20 -110 -8 -49 -17
-101 -19 -115 -8 -44 -56 -324 -60 -350 -13 -76 -57 -332 -65 -375 -5 -27 -11
-63 -14 -80 -8 -54 -62 -372 -70 -411 -2 -12 -7 -39 -10 -60 -4 -22 -11 -61
-16 -89 -5 -27 -12 -63 -14 -80 -5 -27 -62 -369 -71 -420 -2 -11 -6 -31 -9
-45 -4 -14 -8 -38 -10 -55 -2 -16 -6 -46 -10 -65 -3 -19 -8 -48 -11 -65 -3
-16 -10 -57 -16 -90 -6 -33 -13 -71 -14 -85 -2 -14 -13 -79 -25 -145 -36 -210
-101 -589 -106 -620 -5 -35 -22 -130 -29 -165 -3 -13 -7 -40 -10 -60 -3 -20
-7 -47 -10 -60 -3 -14 -21 -117 -40 -230 -19 -113 -37 -216 -39 -230 -3 -14
-7 -41 -10 -60 -3 -19 -8 -48 -11 -65 -3 -16 -12 -66 -20 -110 -8 -44 -17 -93
-20 -110 -2 -16 -7 -50 -11 -75 -3 -25 -9 -61 -14 -80 -5 -19 -11 -55 -14 -80
-3 -25 -8 -56 -11 -70 -3 -14 -7 -36 -10 -50 -10 -61 -76 -444 -90 -530 -9
-52 -18 -106 -21 -120 -2 -14 -18 -101 -34 -195 -37 -216 -35 -207 -60 -355
-12 -69 -23 -138 -27 -155 -5 -30 -7 -42 -17 -100 -3 -16 -12 -70 -21 -120 -9
-49 -18 -103 -21 -120 -6 -39 -16 -95 -21 -120 -2 -11 -6 -36 -9 -55 -2 -19
-7 -46 -10 -60 -2 -14 -6 -36 -9 -50 -2 -14 -9 -53 -15 -88 -6 -35 -13 -75
-15 -90 -2 -15 -10 -65 -19 -112 -8 -47 -17 -98 -20 -115 -6 -35 -34 -198 -40
-235 -9 -46 -25 -145 -31 -180 -3 -19 -8 -48 -11 -65 -17 -91 -55 -314 -59
-335 -5 -37 -15 -91 -20 -120 -3 -14 -7 -41 -10 -60 -3 -19 -12 -71 -20 -115
-8 -44 -17 -95 -20 -112 -5 -31 -8 -51 -21 -128 -3 -16 -14 -82 -25 -145 -11
-63 -22 -124 -24 -135 -1 -11 -6 -36 -9 -55 -3 -19 -8 -48 -11 -65 -3 -16 -10
-57 -15 -90 -5 -33 -12 -71 -15 -85 -11 -62 -48 -277 -50 -290 -2 -17 -15 -95
-21 -125 -3 -11 -11 -60 -19 -110 -8 -49 -17 -101 -20 -115 -10 -56 -77 -445
-80 -469 -4 -25 -51 -299 -61 -351 -2 -14 -7 -41 -10 -60 -2 -19 -7 -46 -10
-60 -2 -14 -6 -36 -9 -50 -2 -14 -16 -92 -30 -175 -33 -193 -33 -193 -40 -239
-4 -21 -9 -48 -11 -60 -2 -11 -9 -48 -14 -81 -10 -58 -13 -77 -25 -140 -3 -16
-12 -70 -20 -120 -8 -49 -17 -103 -20 -120 -3 -16 -10 -55 -15 -85 -15 -90
-20 -114 -24 -135 -2 -11 -7 -42 -10 -70 -4 -27 -9 -57 -11 -65 -5 -18 -8 -37
-35 -195 -26 -150 -28 -161 -35 -209 -4 -21 -9 -48 -11 -60 -6 -30 -26 -147
-29 -173 -2 -12 -6 -34 -9 -50 -3 -15 -9 -45 -12 -67 -3 -21 -8 -48 -10 -60
-2 -11 -18 -102 -34 -201 -33 -191 -37 -217 -44 -252 -3 -11 -8 -43 -11 -70
-4 -26 -11 -64 -15 -83 -5 -19 -11 -57 -15 -84 -3 -27 -8 -52 -10 -55 -1 -3
-6 -31 -10 -61 -4 -30 -8 -57 -10 -60 -2 -3 -6 -25 -9 -50 -3 -25 -15 -97 -26
-160 -28 -158 -117 -677 -124 -722 -3 -21 -10 -57 -15 -80 -5 -24 -12 -63 -15
-88 -7 -51 -12 -83 -26 -155 -15 -78 -20 -107 -26 -154 -3 -25 -7 -48 -9 -52
-3 -3 -7 -28 -10 -55 -4 -26 -8 -50 -10 -53 -2 -3 -6 -31 -10 -61 -3 -30 -10
-71 -15 -90 -5 -19 -16 -80 -24 -135 -9 -55 -18 -110 -20 -122 -3 -11 -8 -43
-12 -70 -5 -26 -9 -50 -9 -53 -1 -3 -5 -27 -10 -55 -4 -27 -9 -59 -11 -70 -3
-11 -7 -36 -10 -55 -2 -19 -9 -55 -14 -80 -5 -25 -14 -74 -20 -110 -5 -36 -12
-76 -15 -90 -2 -14 -15 -90 -29 -170 -14 -80 -27 -154 -30 -165 -4 -20 -19
-121 -21 -140 -1 -9 -13 -77 -21 -120 -6 -29 -64 -365 -70 -400 -2 -16 -9 -56
-15 -88 -5 -32 -12 -70 -14 -85 -2 -15 -17 -103 -33 -197 -39 -218 -45 -255
-40 -255 3 0 32 41 438 620 137 195 253 360 257 365 9 10 528 748 638 905 33
47 112 159 175 249 63 89 138 196 166 236 77 111 401 572 450 640 24 33 53 74
64 90 12 17 62 89 113 161 211 299 563 800 723 1027 93 133 246 350 339 482
93 132 203 288 244 347 91 127 189 267 252 357 72 103 417 594 431 613 7 10
55 77 106 150 51 73 157 223 234 333 78 110 230 326 338 480 108 154 235 334
281 400 47 66 105 149 130 185 25 36 171 243 324 460 153 217 299 424 324 460
25 36 107 153 183 260 76 107 143 203 150 213 7 10 81 114 163 231 130 186
293 417 544 774 37 51 71 101 76 110 6 9 13 19 16 22 5 4 115 160 325 461 272
388 358 509 363 509 3 -1 39 -50 80 -111 41 -60 81 -117 88 -127 13 -17 138
-195 428 -612 249 -357 501 -718 551 -790 25 -36 132 -190 239 -342 l193 -276
-67 -99 c-37 -54 -152 -224 -256 -378 -295 -438 -466 -691 -634 -940 -85 -126
-165 -246 -178 -265 -12 -19 -26 -39 -30 -45 -5 -5 -49 -71 -99 -145 -154
-230 -442 -658 -549 -815 -56 -82 -185 -274 -287 -425 -101 -151 -232 -345
-290 -430 -57 -85 -180 -267 -273 -405 -315 -468 -478 -710 -610 -905 -280
-414 -388 -575 -580 -860 -109 -162 -240 -356 -290 -430 -50 -74 -167 -247
-260 -385 -93 -137 -232 -344 -310 -460 -78 -115 -207 -307 -287 -425 -298
-442 -445 -660 -573 -850 -72 -107 -207 -307 -300 -445 -93 -137 -228 -338
-300 -445 -72 -107 -203 -301 -290 -430 -87 -129 -213 -316 -280 -415 -130
-192 -497 -737 -586 -870 -30 -44 -56 -82 -59 -85 -3 -3 -9 -13 -15 -22 -5
-10 -76 -116 -157 -235 -81 -120 -239 -355 -352 -523 -113 -168 -209 -310
-213 -315 -8 -11 -40 -57 -378 -560 -115 -171 -242 -359 -282 -419 -41 -60
-72 -110 -70 -113 3 -2 93 48 201 112 109 63 201 115 207 115 5 0 9 5 9 10 0
6 4 10 9 10 6 0 81 42 168 93 87 52 203 120 258 153 55 32 105 61 110 64 10 5
185 106 247 143 31 18 676 396 1213 710 160 93 306 178 325 189 62 35 224 131
250 147 14 9 34 21 46 27 22 12 435 253 619 362 61 36 130 76 155 90 25 14 85
49 134 79 49 29 91 53 93 53 2 0 22 12 46 27 23 15 123 74 222 131 206 120
430 251 558 325 49 29 113 66 143 82 29 17 59 36 66 43 7 7 15 12 20 12 4 0
31 14 60 32 29 17 116 68 193 113 77 45 223 131 325 190 102 60 194 113 205
119 11 6 31 18 45 27 14 9 57 34 95 56 39 23 214 125 390 228 176 103 336 196
355 207 19 11 127 75 240 141 113 66 220 128 238 139 38 21 830 484 894 523 9
5 34 20 55 31 21 12 259 151 528 309 270 158 508 298 530 310 22 13 342 200
710 415 369 216 684 400 700 410 17 9 85 49 153 89 67 39 177 103 245 142 67
39 124 73 126 75 2 2 -670 4 -1495 4 l-1499 0 -130 -76 c-72 -42 -148 -86
-170 -99 -22 -12 -92 -53 -155 -90 -63 -37 -128 -76 -145 -85 -26 -15 -152
-89 -240 -140 -16 -10 -140 -82 -275 -160 -135 -78 -257 -151 -272 -161 -15
-10 -30 -19 -33 -19 -3 0 -31 -16 -61 -35 -30 -19 -57 -35 -59 -35 -3 0 -24
-12 -48 -27 -57 -36 -259 -153 -264 -153 -2 0 -16 -8 -31 -19 -15 -10 -58 -36
-97 -59 -155 -89 -442 -256 -465 -271 -14 -9 -34 -21 -45 -26 -11 -6 -90 -52
-175 -102 -396 -232 -498 -292 -534 -313 -41 -25 -53 -44 459 715 78 116 211
314 297 440 85 127 242 361 350 520 108 160 250 371 316 470 67 99 125 185
129 190 10 12 172 252 233 345 25 38 108 161 185 274 77 114 145 214 150 223
6 9 14 22 18 27 8 10 82 121 621 921 118 176 264 392 323 480 124 182 448 664
692 1025 90 135 216 322 279 415 63 94 211 312 327 485 368 546 401 594 411
597 5 1 38 -41 74 -94 36 -53 70 -101 75 -107 6 -6 36 -49 68 -96 96 -141 166
-241 228 -328 32 -45 59 -85 59 -87 0 -3 7 -13 15 -22 8 -10 112 -157 230
-328 119 -170 223 -319 231 -330 8 -11 97 -139 198 -285 284 -408 466 -669
643 -923 89 -128 167 -239 173 -247 37 -54 303 -434 331 -475 20 -27 87 -124
149 -215 63 -91 117 -167 120 -170 4 -3 13 -15 19 -28 7 -13 19 -31 27 -40 12
-16 348 -497 385 -552 l15 -23 51 74 c28 41 66 94 83 119 17 25 83 119 147
210 63 91 121 174 129 185 8 11 76 109 151 217 349 500 446 640 559 800 66 95
230 331 364 523 134 193 314 450 399 572 86 123 188 268 226 324 111 161 183
263 194 276 6 7 11 15 11 18 0 4 6 13 13 20 6 8 33 45 59 82 121 173 323 464
437 628 69 99 137 197 151 217 19 29 28 35 36 25 6 -7 78 -111 159 -232 82
-121 217 -321 300 -445 84 -124 198 -292 254 -375 55 -82 105 -157 111 -165 6
-8 107 -159 226 -335 118 -176 272 -404 342 -508 70 -103 132 -195 137 -205 6
-9 12 -19 15 -22 5 -5 183 -268 355 -525 44 -66 83 -124 88 -130 4 -5 58 -84
118 -175 61 -91 188 -279 283 -418 94 -139 178 -264 186 -277 8 -14 80 -120
159 -237 79 -117 218 -323 309 -458 91 -135 231 -342 310 -460 80 -118 177
-262 216 -320 39 -58 73 -107 76 -110 3 -3 10 -13 15 -22 10 -17 156 -235 476
-708 83 -124 249 -369 367 -545 119 -176 228 -338 243 -360 15 -22 26 -41 24
-43 -3 -3 -290 164 -1220 708 -181 107 -341 200 -355 207 -14 8 -41 24 -61 36
-20 12 -97 57 -170 100 -74 43 -141 82 -149 87 -32 20 -217 128 -260 152 -25
14 -124 72 -220 128 -96 57 -188 111 -205 120 -16 10 -109 64 -205 120 -96 57
-220 129 -276 162 l-101 58 -1499 0 c-1457 0 -1498 -1 -1469 -19 17 -10 82
-48 145 -85 63 -37 122 -71 130 -77 8 -5 22 -12 30 -16 8 -4 17 -9 20 -12 3
-3 19 -13 35 -22 17 -9 68 -39 115 -66 47 -28 177 -104 290 -170 113 -66 435
-254 715 -418 281 -164 562 -329 625 -365 63 -37 264 -154 445 -260 182 -106
344 -201 360 -210 46 -26 238 -139 255 -150 8 -6 22 -13 30 -17 8 -3 38 -21
65 -38 28 -17 75 -45 105 -62 30 -17 210 -122 400 -233 418 -246 575 -337 615
-360 16 -10 244 -142 505 -295 261 -153 552 -323 645 -377 94 -55 177 -103
185 -108 56 -34 373 -220 375 -220 1 0 88 -50 191 -111 104 -62 209 -123 234
-137 25 -14 77 -44 115 -67 39 -24 89 -53 111 -66 47 -27 591 -345 614 -360 8
-5 148 -86 310 -180 162 -95 414 -242 560 -327 146 -85 279 -162 295 -172 17
-10 71 -41 120 -70 50 -29 104 -60 120 -70 17 -9 55 -32 85 -50 30 -18 69 -41
85 -50 17 -9 111 -65 210 -122 99 -58 194 -114 212 -124 18 -11 178 -104 355
-208 178 -104 337 -196 353 -205 17 -9 32 -19 33 -23 2 -5 8 -8 13 -8 5 0 37
-17 72 -39 34 -21 121 -72 192 -113 72 -42 168 -98 215 -125 455 -266 573
-334 576 -331 3 3 -174 270 -276 418 -6 8 -65 96 -131 195 -67 99 -185 274
-263 388 -77 115 -146 216 -151 225 -6 10 -30 46 -55 82 -25 35 -54 79 -65 97
-18 29 -158 236 -420 623 -50 74 -167 248 -260 385 -93 138 -223 331 -290 430
-67 99 -197 293 -290 430 -199 296 -423 627 -550 815 -50 74 -143 212 -205
305 -63 94 -118 175 -123 180 -4 6 -27 39 -51 75 -23 36 -113 171 -201 300
-87 129 -232 345 -323 480 -254 377 -445 660 -557 825 -56 83 -177 263 -270
400 -93 138 -228 338 -300 445 -127 188 -476 706 -657 975 -48 72 -91 135 -95
140 -5 6 -20 28 -33 50 -13 22 -27 42 -30 45 -3 3 -66 95 -140 205 -132 198
-278 415 -495 735 -61 91 -183 271 -270 400 -269 400 -443 657 -580 860 -189
280 -398 590 -580 860 -87 129 -222 330 -300 445 -186 275 -364 540 -620 920
-115 171 -253 375 -307 455 -54 80 -176 260 -270 400 -94 140 -208 309 -253
375 -45 66 -153 226 -240 355 -87 129 -190 282 -229 340 -39 58 -74 107 -78
108 -5 2 -8 8 -8 13 0 5 -33 58 -73 117 -41 59 -136 199 -212 312 -76 113
-197 293 -270 400 -72 107 -206 305 -297 440 -172 256 -398 591 -704 1045
-439 650 -816 1210 -1048 1555 -110 162 -204 300 -210 307 -8 9 -39 -30 -123
-155 -215 -320 -823 -1224 -998 -1482 -230 -339 -480 -711 -490 -728 -5 -9
-12 -19 -15 -22 -3 -3 -45 -63 -92 -135 -48 -71 -142 -211 -209 -310 -67 -99
-214 -317 -327 -485 -113 -168 -252 -374 -309 -458 -66 -97 -102 -159 -99
-169 4 -9 34 -55 67 -102 103 -147 555 -796 697 -1001 74 -107 140 -200 146
-207 8 -9 22 5 56 55 44 65 197 291 615 912 110 162 253 374 318 470 291 431
413 612 422 628 6 9 12 19 15 22 3 3 51 73 106 155 55 83 126 187 157 233 l56
83 72 -108 c73 -109 249 -369 454 -673 61 -91 163 -241 225 -335 63 -93 118
-171 122 -173 4 -2 8 -10 8 -18 0 -8 5 -14 10 -14 6 0 10 -4 10 -10 0 -5 18
-35 40 -67 22 -32 45 -65 50 -73 6 -8 45 -67 88 -130 43 -63 176 -261 297
-440 120 -179 264 -392 320 -475 56 -82 177 -261 269 -398 l167 -247 -173
-248 c-95 -136 -184 -263 -198 -283 -14 -20 -63 -91 -110 -158 -47 -67 -214
-307 -372 -534 -158 -226 -291 -416 -295 -422 -5 -5 -17 -23 -27 -40 -11 -16
-23 -34 -28 -40 -5 -5 -105 -147 -221 -315 -117 -168 -229 -327 -248 -355 -19
-27 -66 -95 -104 -150 -38 -55 -108 -155 -155 -222 -47 -68 -102 -148 -123
-178 l-39 -56 -17 23 c-10 13 -121 172 -247 353 -496 712 -579 830 -586 833
-4 2 -8 8 -8 12 0 5 -36 60 -80 122 -44 62 -84 120 -90 128 -5 8 -52 75 -102
147 -51 73 -129 185 -173 248 -44 64 -106 153 -138 198 -75 106 -383 549 -422
607 -16 25 -34 50 -38 55 -14 18 -91 127 -156 220 -34 50 -89 128 -121 175
-33 47 -64 92 -70 100 -9 14 -231 332 -647 928 -81 117 -183 263 -227 324 -43
61 -109 157 -147 212 -75 109 -165 238 -265 381 -35 50 -68 97 -74 105 -35 52
-150 217 -157 225 -4 6 -32 46 -62 90 -30 44 -57 82 -61 85 -3 3 -41 57 -83
120 -43 63 -97 142 -121 175 -23 33 -64 92 -91 130 -226 324 -370 531 -495
710 -81 116 -231 332 -335 480 -103 149 -213 306 -244 350 -113 163 -753 1081
-767 1100 -27 38 -70 100 -119 170 -95 136 -175 250 -185 265 -5 8 -54 78
-108 155 -53 77 -105 151 -114 165 -10 14 -35 50 -55 80 -21 30 -41 60 -46 65
-11 13 -85 119 -184 262 -45 65 -185 267 -312 448 -127 182 -235 337 -241 345
-5 8 -52 75 -102 147 -91 129 -119 169 -264 380 -39 56 -78 113 -88 125 -9 13
-81 115 -159 228 -150 214 -192 276 -262 375 -43 61 -578 830 -763 1095 -141
203 -217 312 -340 487 -106 152 -221 316 -457 656 -87 126 -125 172 -129 160z
m939 -3970 c28 -42 55 -81 60 -87 6 -6 32 -45 60 -86 27 -41 54 -79 58 -85 5
-5 55 -77 112 -160 58 -82 109 -157 115 -165 34 -47 594 -851 649 -930 36 -52
97 -140 136 -195 38 -55 83 -120 100 -145 16 -25 32 -47 36 -50 3 -3 30 -41
60 -85 100 -146 263 -380 271 -390 5 -5 76 -107 158 -225 154 -223 332 -478
393 -565 20 -27 62 -88 94 -135 32 -47 61 -89 66 -95 38 -51 167 -238 167
-245 0 -7 -47 -75 -385 -555 -89 -126 -178 -252 -197 -280 -19 -27 -149 -212
-289 -410 -139 -198 -278 -396 -308 -440 -31 -44 -59 -84 -64 -90 -4 -5 -76
-107 -159 -225 -243 -346 -356 -506 -457 -650 -53 -74 -113 -160 -134 -190
-21 -30 -67 -95 -102 -145 -35 -49 -84 -119 -109 -155 -25 -36 -72 -103 -105
-150 -33 -47 -77 -110 -99 -140 -21 -30 -238 -338 -482 -685 -685 -974 -702
-997 -734 -1045 -16 -25 -33 -47 -36 -50 -3 -3 -95 -133 -205 -290 -391 -559
-428 -609 -422 -570 3 19 17 103 32 185 14 83 28 161 30 175 26 153 57 331 61
355 2 17 11 66 19 110 8 44 17 96 19 115 6 34 12 69 21 120 3 14 7 41 10 60 3
19 12 71 20 115 8 44 16 94 19 110 3 17 25 147 50 290 25 143 47 276 50 295 3
19 8 46 11 60 3 14 14 79 25 145 11 66 22 130 24 141 2 12 7 37 10 55 3 19 12
72 20 119 8 47 17 103 21 125 3 22 7 47 10 55 2 8 6 33 10 55 3 22 17 105 31
185 14 80 27 159 30 175 3 17 11 66 19 110 8 44 17 98 20 120 4 22 8 47 10 55
2 8 7 33 10 55 3 23 8 52 10 65 3 14 8 39 10 55 11 63 25 141 29 170 5 29 40
229 71 410 9 50 18 106 21 125 3 19 7 42 9 50 2 8 7 33 10 55 3 23 8 52 10 65
6 28 11 60 19 110 3 19 10 60 15 90 6 30 22 123 36 205 14 83 51 294 81 470
64 374 64 372 69 405 2 14 6 36 9 50 5 26 10 55 21 125 3 22 10 63 16 90 5 28
11 64 14 80 2 17 16 98 30 180 14 83 28 164 31 180 2 17 9 53 14 80 5 28 12
66 15 85 3 19 10 58 15 85 5 28 12 66 14 85 3 19 7 44 10 55 2 11 7 40 11 65
4 25 9 53 11 63 2 10 12 73 24 140 19 116 24 140 35 205 3 15 18 108 35 207
17 99 39 230 50 290 11 61 22 127 26 149 3 21 8 48 10 60 5 24 33 186 40 231
4 28 16 98 29 170 2 17 7 39 9 51 2 12 7 45 11 75 4 30 8 56 10 59 2 3 13 62
24 130 12 69 23 137 26 153 11 61 15 85 25 147 12 71 18 104 24 136 2 12 7 37
10 55 13 84 83 489 90 524 13 69 19 112 17 122 -5 29 28 -4 74 -74z"/>
</g>
</svg>
