<?xml version="1.0" encoding="utf-8"?>
<!-- Generator: Adobe Illustrator 23.0.0, SVG Export Plug-In . SVG Version: 6.00 Build 0)  -->
<svg version="1.1" id="Layer_1" xmlns="http://www.w3.org/2000/svg" xmlns:xlink="http://www.w3.org/1999/xlink" x="0px" y="0px"
	 viewBox="0 0 2000 1528.49" style="enable-background:new 0 0 2000 1528.49;" xml:space="preserve">
<style type="text/css">
	.st0{clip-path:url(#SVGID_2_);fill:url(#SVGID_3_);}
	.st1{clip-path:url(#SVGID_5_);fill:url(#SVGID_6_);}
</style>
<rect x="-17.93" y="-22.34" width="2035.85" height="1573.17"/>
<g>
	<g>
		<defs>
			<path id="SVGID_1_" d="M897.97,379.34l-22.08-31.71L1000,171.26l258.58,367.39l-40.64-236.61l-51.81,74.28l-22.19-31.65
				l94.8-135.89l82.85,482.52l-188.4-267.73l-27.75,39.78l-21.71-32.3l27.25-39.06L1000,234.29L897.97,379.34z M1306.26,793.57
				l-268.78-157.11h71.89l77.8,45.48l-115.13-170.7L1000,614.52l-72.97-104.66L811.01,681.94l77.79-45.48h71.9L691.93,793.57
				l212.85-315.61l-37.93-54.41L678.42,691.29l82.88-482.52L1000,551.07l50.3-72.11l-51.22-75.93l-41.65,61.75l-22.22-31.94
				l63.87-94.72L1306.26,793.57z M844.73,391.87l-62.64-89.83l-40.65,236.61L844.73,391.87z"/>
		</defs>
		<clipPath id="SVGID_2_">
			<use xlink:href="#SVGID_1_"  style="overflow:visible;"/>
		</clipPath>
		
			<linearGradient id="SVGID_3_" gradientUnits="userSpaceOnUse" x1="639.0432" y1="1126.9597" x2="643.9416" y2="1126.9597" gradientTransform="matrix(131.3006 0 0 -131.3006 -83228.3125 148452.875)">
			<stop  offset="0" style="stop-color:#B47802"/>
			<stop  offset="0.3554" style="stop-color:#CC992E"/>
			<stop  offset="0.7852" style="stop-color:#E5BC5D"/>
			<stop  offset="1" style="stop-color:#EFCA6F"/>
		</linearGradient>
		<rect x="678.42" y="171.26" class="st0" width="643.17" height="622.31"/>
	</g>
	<g>
		<defs>
			<path id="SVGID_4_" d="M274.01,1322.96l-12.03,29.02l-11.99-29.02h-4.23l14.48,33.93h3.38l14.48-33.93H274.01z M376.05,1356.65
				h3.81v-33.7h-3.81V1356.65z M418.6,1322.96v33.69h22.76v-3.51H422.4v-30.18H418.6z M547.98,1341.35h10.61
				c2.95,0,5.17,0.5,6.67,1.52c1.5,1.01,2.26,2.45,2.26,4.33c0,1.93-0.74,3.43-2.21,4.5c-1.47,1.06-3.49,1.59-6.05,1.59h-11.29
				V1341.35z M547.98,1326.33h10.23c2.4,0,4.24,0.5,5.52,1.5c1.28,1,1.92,2.36,1.92,4.06c0,2-0.72,3.52-2.16,4.54
				c-1.44,1.04-3.3,1.55-5.57,1.55h-9.94V1326.33z M544.17,1322.96v33.69h14.95c1.83,0,3.49-0.21,5-0.62
				c1.5-0.42,2.8-1.02,3.86-1.81c1.08-0.79,1.9-1.76,2.48-2.91c0.57-1.16,0.87-2.46,0.87-3.9c0-1.15-0.2-2.18-0.58-3.08
				c-0.39-0.9-0.9-1.67-1.54-2.32c-0.64-0.64-1.41-1.19-2.29-1.66c-0.88-0.46-1.81-0.84-2.81-1.13c0.68-0.29,1.32-0.66,1.94-1.09
				c0.63-0.44,1.19-0.97,1.7-1.61c0.51-0.65,0.92-1.38,1.22-2.22c0.3-0.83,0.46-1.81,0.46-2.93c0-1.28-0.25-2.45-0.76-3.49
				c-0.52-1.05-1.25-1.93-2.21-2.65c-0.96-0.72-2.11-1.28-3.46-1.69c-1.34-0.4-2.85-0.6-4.51-0.6H544.17z M607.81,1322.96v33.69
				h22.77v-3.51h-18.97v-30.18H607.81z M666.48,1322.96v33.69h24.6v-3.47h-20.79v-11.79h18.39v-3.47h-18.39v-11.5h20.55v-3.47
				H666.48z M865.52,1322.96v27l-21.23-27h-3.56v33.69h3.71v-27.63l21.75,27.63h3.03v-33.69H865.52z M951.29,1356.65h3.8v-33.7h-3.8
				V1356.65z M1258.09,1322.96v27l-21.23-27h-3.56v33.69h3.7v-27.63l21.76,27.63h3.03v-33.69H1258.09z M1304.01,1326.47h7.9
				c2.12,0,4.04,0.35,5.78,1.03c1.73,0.7,3.2,1.64,4.4,2.84c1.2,1.2,2.14,2.63,2.79,4.26c0.66,1.63,0.98,3.38,0.98,5.25
				c0,1.9-0.32,3.64-0.98,5.25c-0.66,1.6-1.59,3.01-2.79,4.21c-1.2,1.2-2.67,2.14-4.4,2.82c-1.73,0.68-3.66,1.01-5.78,1.01h-7.9
				V1326.47z M1300.21,1322.96v33.69h11.7c2.63,0,5.05-0.43,7.24-1.3c2.2-0.86,4.09-2.06,5.68-3.56c1.59-1.51,2.82-3.3,3.68-5.37
				c0.87-2.07,1.3-4.29,1.3-6.67c0-2.37-0.44-4.58-1.3-6.64c-0.87-2.05-2.1-3.84-3.68-5.34c-1.59-1.5-3.48-2.68-5.68-3.54
				c-2.2-0.85-4.61-1.27-7.24-1.27H1300.21z M1501.74,1322.96v27l-21.23-27h-3.57v33.69h3.71v-27.63l21.76,27.63h3.03v-33.69
				H1501.74z M1547.66,1326.47h7.9c2.12,0,4.05,0.35,5.78,1.03c1.73,0.7,3.2,1.64,4.4,2.84c1.2,1.2,2.14,2.63,2.79,4.26
				c0.66,1.63,0.99,3.38,0.99,5.25c0,1.9-0.33,3.64-0.99,5.25c-0.66,1.6-1.59,3.01-2.79,4.21c-1.2,1.2-2.67,2.14-4.4,2.82
				c-1.73,0.68-3.66,1.01-5.78,1.01h-7.9V1326.47z M1543.86,1322.96v33.69h11.69c2.64,0,5.05-0.43,7.24-1.3
				c2.19-0.86,4.09-2.06,5.68-3.56c1.59-1.51,2.82-3.3,3.68-5.37c0.87-2.07,1.3-4.29,1.3-6.67c0-2.37-0.44-4.58-1.3-6.64
				c-0.87-2.05-2.1-3.84-3.68-5.34c-1.59-1.5-3.48-2.68-5.68-3.54c-2.19-0.85-4.61-1.27-7.24-1.27H1543.86z M1614.18,1326.47h10.42
				c2.74,0,4.86,0.59,6.37,1.76c1.51,1.18,2.27,2.82,2.27,4.95c0,1.09-0.22,2.08-0.65,2.94c-0.44,0.87-1.03,1.61-1.81,2.2
				c-0.77,0.6-1.69,1.06-2.75,1.38c-1.06,0.32-2.22,0.48-3.48,0.48h-10.37V1326.47z M1610.38,1322.96v33.69h3.8v-13.09h9.63
				l9.77,13.09h4.67l-10.35-13.75c1.32-0.23,2.53-0.61,3.66-1.16c1.12-0.54,2.09-1.22,2.91-2.05c0.82-0.82,1.45-1.78,1.9-2.89
				c0.45-1.11,0.68-2.37,0.68-3.78c0-1.5-0.29-2.88-0.86-4.11c-0.58-1.24-1.4-2.3-2.46-3.18c-1.06-0.88-2.34-1.57-3.83-2.05
				c-1.49-0.48-3.17-0.72-5.03-0.72H1610.38z M1744.19,1356.65h3.8v-33.7h-3.8V1356.65z M1790.54,1326.47h7.9
				c2.12,0,4.04,0.35,5.78,1.03c1.73,0.7,3.2,1.64,4.4,2.84c1.21,1.2,2.14,2.63,2.79,4.26c0.66,1.63,0.98,3.38,0.98,5.25
				c0,1.9-0.33,3.64-0.98,5.25c-0.66,1.6-1.59,3.01-2.79,4.21c-1.2,1.2-2.67,2.14-4.4,2.82c-1.73,0.68-3.66,1.01-5.78,1.01h-7.9
				V1326.47z M1786.74,1322.96v33.69h11.7c2.63,0,5.05-0.43,7.24-1.3c2.19-0.86,4.09-2.06,5.68-3.56c1.59-1.51,2.82-3.3,3.68-5.37
				c0.87-2.07,1.3-4.29,1.3-6.67c0-2.37-0.43-4.58-1.3-6.64c-0.87-2.05-2.1-3.84-3.68-5.34c-1.59-1.5-3.48-2.68-5.68-3.54
				c-2.2-0.85-4.62-1.27-7.24-1.27H1786.74z M200.74,1327.2l7.66,17.18h-15.36L200.74,1327.2z M199.02,1322.72l-15.36,33.93h3.9
				l3.99-8.91h18.34l3.94,8.91h4.1l-15.36-33.93H199.02z M323,1327.2l7.66,17.18H315.3L323,1327.2z M321.27,1322.72l-15.35,33.93
				h3.89l4-8.91h18.34l3.94,8.91h4.09l-15.35-33.93H321.27z M491.47,1327.2l7.65,17.18h-15.35L491.47,1327.2z M489.74,1322.72
				l-15.36,33.93h3.9l4-8.91h18.33l3.95,8.91h4.09l-15.36-33.93H489.74z M1180.6,1327.2l7.65,17.18h-15.36L1180.6,1327.2z
				 M1178.86,1322.72l-15.36,33.93h3.9l4-8.91h18.34l3.95,8.91h4.09l-15.36-33.93H1178.86z M1424.24,1327.2l7.65,17.18h-15.35
				L1424.24,1327.2z M1422.52,1322.72l-15.36,33.93h3.9l3.99-8.91h18.34l3.95,8.91h4.09l-15.35-33.93H1422.52z M1069.17,1323.18
				c-1.35,0.47-2.52,1.11-3.51,1.93c-1,0.82-1.76,1.79-2.31,2.91c-0.54,1.12-0.82,2.36-0.82,3.71c0,1.42,0.23,2.64,0.67,3.67
				c0.46,1.02,1.15,1.93,2.08,2.69c0.94,0.77,2.12,1.43,3.55,1.98c1.43,0.55,3.11,1.03,5.04,1.45c1.76,0.38,3.22,0.78,4.36,1.2
				c1.15,0.42,2.03,0.88,2.68,1.4c0.64,0.51,1.09,1.08,1.35,1.71c0.25,0.63,0.38,1.34,0.38,2.14c0,1.74-0.68,3.14-2.04,4.19
				c-1.36,1.06-3.18,1.6-5.46,1.6c-2.35,0-4.41-0.39-6.21-1.18c-1.8-0.79-3.58-1.98-5.34-3.59l-2.37,2.79
				c2.02,1.82,4.15,3.16,6.38,4.04c2.23,0.87,4.69,1.3,7.39,1.3c1.67,0,3.21-0.22,4.62-0.67c1.41-0.45,2.62-1.09,3.62-1.93
				c1-0.83,1.79-1.85,2.36-3.04c0.57-1.19,0.86-2.51,0.86-3.95c0-2.61-0.89-4.64-2.67-6.12c-1.78-1.47-4.55-2.64-8.31-3.47
				c-1.86-0.39-3.38-0.8-4.57-1.23c-1.19-0.44-2.12-0.92-2.79-1.45c-0.68-0.53-1.14-1.11-1.4-1.76c-0.25-0.64-0.39-1.37-0.39-2.17
				c0-0.77,0.17-1.49,0.5-2.17c0.34-0.68,0.82-1.26,1.44-1.73c0.63-0.48,1.38-0.87,2.26-1.17c0.88-0.28,1.87-0.43,2.96-0.43
				c1.73,0,3.39,0.29,4.98,0.87c1.59,0.57,3.16,1.5,4.74,2.79l2.21-2.93c-1.73-1.37-3.52-2.39-5.36-3.07
				c-1.85-0.68-4-1.02-6.48-1.02C1071.99,1322.48,1070.52,1322.71,1069.17,1323.18 M781.36,1352.61c-1.63-0.73-3.03-1.73-4.21-2.98
				c-1.19-1.25-2.12-2.73-2.77-4.43c-0.66-1.69-0.99-3.51-0.99-5.44c0-1.93,0.33-3.73,0.99-5.42c0.65-1.68,1.56-3.15,2.71-4.4
				c1.16-1.25,2.54-2.24,4.17-2.96c1.62-0.72,3.39-1.09,5.31-1.09s3.7,0.37,5.32,1.11c1.62,0.73,3.03,1.74,4.21,2.98
				c1.19,1.25,2.11,2.73,2.77,4.43c0.66,1.69,0.99,3.51,0.99,5.44c0,1.93-0.33,3.73-0.99,5.42c-0.66,1.68-1.56,3.15-2.72,4.4
				c-1.16,1.25-2.55,2.24-4.17,2.96c-1.62,0.72-3.39,1.08-5.31,1.08C784.75,1353.72,782.97,1353.35,781.36,1352.61 M779.64,1323.8
				c-2.12,0.95-3.93,2.22-5.44,3.83c-1.51,1.61-2.68,3.45-3.52,5.56c-0.83,2.1-1.25,4.33-1.25,6.67c0,2.34,0.41,4.57,1.23,6.67
				c0.81,2.1,1.98,3.95,3.49,5.54c1.51,1.59,3.32,2.85,5.42,3.78c2.1,0.94,4.43,1.4,7,1.4c2.57,0,4.91-0.48,7.03-1.42
				c2.12-0.95,3.93-2.22,5.44-3.83c1.51-1.6,2.68-3.45,3.52-5.56c0.83-2.1,1.25-4.33,1.25-6.67s-0.41-4.57-1.23-6.66
				c-0.81-2.1-1.98-3.95-3.49-5.54c-1.51-1.59-3.32-2.85-5.41-3.78c-2.1-0.93-4.44-1.39-7-1.39
				C784.11,1322.38,781.76,1322.85,779.64,1323.8 M1004.26,1352.61c-1.62-0.73-3.02-1.73-4.21-2.98c-1.19-1.25-2.12-2.73-2.77-4.43
				c-0.66-1.69-0.99-3.51-0.99-5.44c0-1.93,0.33-3.73,0.99-5.42c0.65-1.68,1.56-3.15,2.71-4.4c1.16-1.25,2.54-2.24,4.17-2.96
				c1.62-0.72,3.39-1.09,5.31-1.09c1.93,0,3.7,0.37,5.32,1.11c1.62,0.73,3.03,1.74,4.21,2.98c1.19,1.25,2.11,2.73,2.77,4.43
				c0.66,1.69,0.98,3.51,0.98,5.44c0,1.93-0.33,3.73-0.98,5.42c-0.66,1.68-1.57,3.15-2.72,4.4c-1.16,1.25-2.55,2.24-4.16,2.96
				c-1.62,0.72-3.39,1.08-5.32,1.08C1007.65,1353.72,1005.88,1353.35,1004.26,1352.61 M1002.55,1323.8
				c-2.12,0.95-3.93,2.22-5.44,3.83c-1.51,1.61-2.68,3.45-3.52,5.56c-0.83,2.1-1.25,4.33-1.25,6.67c0,2.34,0.41,4.57,1.23,6.67
				c0.81,2.1,1.98,3.95,3.49,5.54c1.5,1.59,3.32,2.85,5.42,3.78c2.1,0.94,4.43,1.4,7,1.4c2.57,0,4.91-0.48,7.03-1.42
				c2.12-0.95,3.93-2.22,5.44-3.83c1.51-1.6,2.68-3.45,3.51-5.56c0.84-2.1,1.25-4.33,1.25-6.67s-0.41-4.57-1.23-6.66
				c-0.82-2.1-1.98-3.95-3.49-5.54c-1.51-1.59-3.32-2.85-5.41-3.78c-2.1-0.93-4.44-1.39-7-1.39
				C1007.01,1322.38,1004.66,1322.85,1002.55,1323.8 M1684.48,1352.61c-1.62-0.73-3.02-1.73-4.21-2.98
				c-1.19-1.25-2.12-2.73-2.77-4.43c-0.66-1.69-0.98-3.51-0.98-5.44c0-1.93,0.33-3.73,0.98-5.42c0.66-1.68,1.57-3.15,2.72-4.4
				c1.15-1.25,2.54-2.24,4.16-2.96c1.62-0.72,3.39-1.09,5.32-1.09c1.93,0,3.7,0.37,5.32,1.11c1.62,0.73,3.02,1.74,4.21,2.98
				c1.19,1.25,2.11,2.73,2.77,4.43c0.66,1.69,0.98,3.51,0.98,5.44c0,1.93-0.33,3.73-0.98,5.42c-0.66,1.68-1.57,3.15-2.72,4.4
				c-1.15,1.25-2.54,2.24-4.16,2.96c-1.63,0.72-3.39,1.08-5.32,1.08C1687.87,1353.72,1686.1,1353.35,1684.48,1352.61
				 M1682.77,1323.8c-2.12,0.95-3.93,2.22-5.44,3.83c-1.51,1.61-2.68,3.45-3.52,5.56c-0.83,2.1-1.25,4.33-1.25,6.67
				c0,2.34,0.41,4.57,1.22,6.67c0.82,2.1,1.98,3.95,3.49,5.54c1.51,1.59,3.31,2.85,5.41,3.78c2.11,0.94,4.44,1.4,7,1.4
				c2.57,0,4.91-0.48,7.03-1.42c2.12-0.95,3.93-2.22,5.44-3.83c1.51-1.6,2.68-3.45,3.51-5.56c0.84-2.1,1.25-4.33,1.25-6.67
				s-0.41-4.57-1.22-6.66c-0.82-2.1-1.98-3.95-3.49-5.54c-1.51-1.59-3.32-2.85-5.42-3.78c-2.11-0.93-4.44-1.39-7.01-1.39
				C1687.23,1322.38,1684.89,1322.85,1682.77,1323.8 M184.24,1232.31H1548.2v-3.91H184.24V1232.31z M1693.73,1199.01h14.14
				c4.55,0,8.18,1.04,10.88,3.12c2.7,2.08,4.06,5.2,4.06,9.35c0,3.76-1.34,6.78-4.01,9.05c-2.66,2.28-6.31,3.42-10.93,3.42h-14.14
				V1199.01z M1681.71,1188.07v69h12.03v-22.18h13.74c3.82,0,7.41-0.5,10.77-1.52c3.36-1.02,6.29-2.52,8.79-4.49
				c2.5-1.97,4.48-4.44,5.93-7.4c1.45-2.95,2.18-6.37,2.18-10.25c0-3.55-0.61-6.74-1.83-9.56c-1.21-2.83-2.95-5.26-5.22-7.3
				c-2.27-2.03-5.03-3.6-8.28-4.68c-3.26-1.09-6.89-1.63-10.89-1.63H1681.71z M1774.36,1199.01h14.15c4.55,0,8.18,1.04,10.88,3.12
				c2.7,2.08,4.05,5.2,4.05,9.35c0,3.76-1.34,6.78-4.01,9.05c-2.66,2.28-6.31,3.42-10.92,3.42h-14.15V1199.01z M1762.34,1188.07v69
				h12.03v-22.18h13.74c3.82,0,7.41-0.5,10.77-1.52c3.36-1.02,6.29-2.52,8.79-4.49c2.5-1.97,4.48-4.44,5.93-7.4
				c1.45-2.95,2.17-6.37,2.17-10.25c0-3.55-0.61-6.74-1.82-9.56c-1.22-2.83-2.96-5.26-5.23-7.3c-2.27-2.03-5.03-3.6-8.28-4.68
				c-3.25-1.09-6.88-1.63-10.89-1.63H1762.34z M1618.92,1202.07l11.93,27.6h-23.76L1618.92,1202.07z M1613.5,1187.58l-30.36,69.49
				h12.42l7.1-16.66h32.63l7,16.66h12.81l-30.36-69.49H1613.5z M551.95,987.42v90.54c0,14.32-3.93,25.83-11.78,34.53
				c-7.85,8.69-17.94,13.05-30.26,13.05c-12.32,0-22.41-4.35-30.26-13.05c-7.85-8.7-11.78-20.22-11.78-34.53v-90.54h-18.48v91.93
				c0,19.25,6.01,34.8,18.02,46.65c11.39,11.4,25.56,17.1,42.5,17.1c16.94,0,31.1-5.7,42.5-17.1c12.01-11.85,18.01-27.4,18.01-46.65
				v-91.93H551.95z M927.51,987.42l-73.45,76.92v-76.92h-18.48v153.83h18.48v-76.92l79.46,76.92h26.1l-80.38-77.84l72.53-75.99
				H927.51z M1782.59,987.42l-44.81,65.36l-44.81-65.36h-22.18l57.75,85.46v68.37h18.48v-68.37l57.75-85.46H1782.59z
				 M662.35,1008.55c-15.4,15.33-23.1,33.92-23.1,55.78s7.66,40.46,22.98,55.78c15.32,15.32,33.91,22.98,55.78,22.98
				c18.17,0,34.19-5.32,48.04-15.94l-11.11-14.09c-12.19,8.32-24.46,12.48-36.8,12.48c-16.82,0-31.1-5.93-42.82-17.79
				c-11.73-11.85-17.59-26.33-17.59-43.42s5.86-31.57,17.59-43.42c11.73-11.85,26-17.78,42.82-17.78c12.8,0,25.07,4.23,36.8,12.7
				l11.11-13.85c-13.09-10.93-29.1-16.4-48.04-16.4C696.31,985.57,677.75,993.23,662.35,1008.55 M288.41,1098.98l-46.2-116.65
				l-52.66,158.92h19.4l34.88-107.63l44.58,112.71l44.58-112.71l34.88,107.63h19.41L334.6,982.33L288.41,1098.98z M1172.81,1024.38
				l23.33,50.81h-46.66L1172.81,1024.38z M1098.89,1141.25h20.33l22.63-49.66h61.9l22.64,49.66h20.33l-73.91-158.92L1098.89,1141.25
				z M1331.72,1095.05l-34.88-107.63h-19.4l52.66,158.91l46.2-116.64l46.2,116.64l52.66-158.91h-19.41l-34.88,107.63l-44.58-112.72
				L1331.72,1095.05z M1579.79,1024.38l23.33,50.81h-46.66L1579.79,1024.38z M1505.88,1141.25h20.32l22.64-49.66h61.91l22.63,49.66
				h20.32l-73.91-158.92L1505.88,1141.25z"/>
		</defs>
		<clipPath id="SVGID_5_">
			<use xlink:href="#SVGID_4_"  style="overflow:visible;"/>
		</clipPath>
		
			<linearGradient id="SVGID_6_" gradientUnits="userSpaceOnUse" x1="639.0478" y1="1124.2786" x2="643.9462" y2="1124.2786" gradientTransform="matrix(333.3064 0 0 -333.3064 -212815.0313 375899)">
			<stop  offset="0" style="stop-color:#B47802"/>
			<stop  offset="0.3554" style="stop-color:#CC992E"/>
			<stop  offset="0.7852" style="stop-color:#E5BC5D"/>
			<stop  offset="1" style="stop-color:#EFCA6F"/>
		</linearGradient>
		<rect x="183.66" y="982.33" class="st1" width="1632.68" height="374.9"/>
	</g>
</g>
</svg>
